Patient4_TMGait_0pt3_02_left_24_GRF.mot
version=1
nRows=52
nColumns=19
inDegrees=no
endheader
time	F1x	F1y	F1z	M1x	M1y	M1z	F2x	F2y	F2z	M2x	M2y	M2z	EC1x	EC1y	EC1z	EC2x	EC2y	EC2z
47.03	-0.71976	2.0528	-2.0689	0.25585	2.5148	0.044193	-9.073	773.2079	-56.44	288.4915	63.5206	785.7418	-0.0592	0.0182	-0.0073	-0.0462	0.0165	0.9585
47.0499	-0.58087	1.5696	-1.4435	0.12497	1.7163	0.27921	-10.4384	777.8518	-54.9726	291.165	62.408	789.104	-0.0592	0.0182	-0.0073	-0.0462	0.0165	0.9585
47.0697	-0.4551	1.1521	-0.88202	0.0055776	0.99687	0.48294	-12.1648	784.9223	-53.14	294.9208	61.0314	794.5292	-0.0592	0.0182	-0.0073	-0.0462	0.0165	0.9585
47.0896	-0.35388	0.83332	-0.43624	-0.09381	0.42283	0.65181	-14.2308	794.8377	-51.0989	299.8431	59.5344	802.4974	-0.0592	0.0182	-0.0073	-0.0462	0.0165	0.9585
47.1094	-0.28031	0.61989	-0.1172	-0.17174	0.0085132	0.78935	-16.5381	807.6204	-49.068	305.8524	58.0915	813.0704	-0.0592	0.0182	-0.0073	-0.0462	0.0165	0.9585
47.1293	-0.2353	0.4994	0.088926	-0.23002	-0.26532	0.89974	-18.8777	822.6692	-47.2655	312.633	56.8385	825.6427	-0.0592	0.0182	-0.0073	-0.0462	0.0165	0.9585
47.1491	-0.21907	0.44487	0.2057	-0.26946	-0.43057	0.98083	-20.9362	838.5965	-45.8539	319.5854	55.8171	838.7838	-0.0592	0.0182	-0.0073	-0.0462	0.0165	0.9585
47.169	-0.23055	0.41972	0.25947	-0.28788	-0.52167	1.0193	-22.3367	853.309	-44.901	325.868	54.9537	850.3455	-0.0592	0.0182	-0.0073	-0.0462	0.0165	0.9585
47.1889	-0.26744	0.38056	0.27516	-0.28001	-0.57013	0.99144	-22.7351	864.3629	-44.3606	330.5375	54.0783	857.8585	-0.0592	0.0182	-0.0073	-0.0462	0.0165	0.9585
47.2087	-0.33004	0.27973	0.27323	-0.23737	-0.60045	0.86498	-21.9102	869.4873	-44.0881	332.7426	52.9739	859.0782	-0.0592	0.0182	-0.0073	-0.0462	0.0165	0.9585
47.2286	-0.41505	0.065899	0.266	-0.1459	-0.62513	0.59167	-19.8007	867.1592	-43.8813	331.9351	51.4315	852.5531	-0.0592	0.0182	-0.0073	-0.0462	0.0165	0.9585
47.2484	-0.51185	-0.31928	0.25917	0.012482	-0.64866	0.11655	-16.4864	856.9632	-43.5403	327.9994	49.2993	837.9716	-0.0592	0.0182	-0.0073	-0.0462	0.0165	0.9585
47.2683	-0.60217	-0.93588	0.25473	0.25583	-0.66864	-0.61266	-12.1569	839.6642	-42.9363	321.2695	46.5316	816.2083	-0.0592	0.0182	-0.0073	-0.0462	0.0165	0.9585
47.2881	-0.65793	-1.8226	0.24737	0.59623	-0.67185	-1.6281	-7.0711	817.0712	-42.0469	312.4693	43.2025	789.1635	-0.0592	0.0182	-0.0073	-0.0462	0.0165	0.9585
47.308	-0.63627	-2.9715	0.22489	1.0294	-0.63062	-2.9154	-1.5193	791.7118	-40.9532	302.5875	39.5013	759.4234	-0.0592	0.0182	-0.0073	-0.0462	0.0165	0.9585
47.3279	-0.47696	-4.2921	0.17313	1.5211	-0.50691	-4.3777	4.215	766.3937	-39.8006	292.7129	35.6799	729.8047	-0.0592	0.0182	-0.0073	-0.0462	0.0165	0.9585
47.3477	-0.099708	-5.5687	0.077419	1.9918	-0.25513	-5.7879	9.8784	743.7513	-38.7565	283.8619	32.0006	702.9115	-0.0592	0.0182	-0.0073	-0.0462	0.0165	0.9585
47.3676	0.58252	-6.415	-0.076598	2.2979	0.17234	-6.7321	15.2556	725.8209	-37.9757	276.8184	28.6994	680.7377	-0.0592	0.0182	-0.0073	-0.0462	0.0165	0.9585
47.3874	1.6495	-6.2268	-0.29702	2.2141	0.81475	-6.5662	20.1742	713.6831	-37.5717	271.9971	25.9545	664.3444	-0.0592	0.0182	-0.0073	-0.0462	0.0165	0.9585
47.4073	3.1525	-4.1499	-0.58098	1.4244	1.6867	-4.3782	24.4992	707.2699	-37.6017	269.3675	23.8756	653.6982	-0.0592	0.0182	-0.0073	-0.0462	0.0165	0.9585
47.4271	5.0736	0.90894	-0.90434	-0.473	2.7537	1.0081	28.1115	705.4124	-38.0457	268.4736	22.4912	647.7491	-0.0592	0.0182	-0.0073	-0.0462	0.0165	0.9585
47.447	7.2682	10.1878	-1.2124	-3.9346	3.9024	10.9342	30.8881	706.0571	-38.8016	268.5167	21.7542	644.6436	-0.0592	0.0182	-0.0073	-0.0462	0.0165	0.9585
47.4669	9.3894	24.8751	-1.4099	-9.3989	4.9007	26.6981	32.6977	706.6144	-39.7053	268.493	21.564	642.0562	-0.0592	0.0182	-0.0073	-0.0462	0.0165	0.9585
47.4867	10.7894	45.8111	-1.3518	-17.1729	5.3475	49.2353	33.419	704.3797	-40.5597	267.3625	21.7872	637.5589	-0.0592	0.0182	-0.0073	-0.0462	0.0165	0.9585
47.5066	10.6625	73.2874	-0.82997	-27.3553	4.7155	78.8994	33.0108	696.974	-41.1616	264.2258	22.2605	628.992	-0.0592	0.0182	-0.0073	-0.0462	0.0165	0.9585
47.5264	8.732	107.3273	0.40481	-39.9339	2.6256	115.741	31.5589	682.6754	-41.3187	258.4558	22.7866	614.755	-0.0592	0.0182	-0.0073	-0.0462	0.0165	0.9585
47.5463	5.1898	147.4368	2.6443	-54.6944	-1.17	159.2052	29.2437	660.4401	-40.8544	249.6979	23.151	593.8387	-0.0592	0.0182	-0.0073	-0.0462	0.0165	0.9585
47.5661	0.44017	192.0622	6.1315	-71.0371	-6.7761	207.5427	26.2918	629.8664	-39.6205	237.8449	23.1491	565.8019	-0.0592	0.0182	-0.0073	-0.0462	0.0165	0.9585
47.586	-4.8261	238.785	10.7518	-88.0766	-13.7853	257.9968	22.9613	591.3747	-37.5584	223.0902	22.6393	530.9312	-0.0592	0.0182	-0.0073	-0.0462	0.0165	0.9585
47.6059	-9.7894	285.1137	15.9178	-104.9388	-21.2141	307.6708	19.5297	546.3535	-34.7578	205.9761	21.5969	490.3702	-0.0592	0.0182	-0.0073	-0.0462	0.0165	0.9585
47.6257	-13.8236	329.5993	20.9685	-121.1391	-28.0909	354.8204	16.2793	497.1148	-31.4324	187.376	20.0976	446.0857	-0.0592	0.0182	-0.0073	-0.0462	0.0165	0.9585
47.6456	-16.607	371.84	25.3984	-136.5652	-33.7487	398.9139	13.4448	446.5318	-27.8723	168.3604	18.2911	400.5667	-0.0592	0.0182	-0.0073	-0.0462	0.0165	0.9585
47.6654	-18.0211	411.5958	28.9483	-151.1433	-37.8793	439.6745	11.1349	397.3806	-24.3702	149.9528	16.3672	356.2637	-0.0592	0.0182	-0.0073	-0.0462	0.0165	0.9585
47.6853	-18.0799	448.3091	31.5865	-164.6612	-40.4788	476.551	9.3372	351.8342	-21.179	132.9447	14.5267	315.1368	-0.0592	0.0182	-0.0073	-0.0462	0.0165	0.9585
47.7051	-16.9369	481.2303	33.409	-176.823	-41.7378	508.8478	7.9736	311.2928	-18.5021	117.8327	12.9553	278.4775	-0.0592	0.0182	-0.0073	-0.0462	0.0165	0.9585
47.725	-14.8837	509.7658	34.5539	-187.39	-41.9433	536.0723	6.9529	276.3923	-16.466	104.8293	11.7826	246.8939	-0.0592	0.0182	-0.0073	-0.0462	0.0165	0.9585
47.7449	-12.2893	533.8306	35.1312	-196.3173	-41.3763	558.2799	6.1936	247.0761	-15.0808	93.8966	11.0426	220.3617	-0.0592	0.0182	-0.0073	-0.0462	0.0165	0.9585
47.7647	-9.5084	553.9153	35.2024	-203.7811	-40.2548	576.128	5.6291	222.7106	-14.2384	84.7882	10.6672	198.3277	-0.0592	0.0182	-0.0073	-0.0462	0.0165	0.9585
47.7846	-6.8051	570.8332	34.8352	-210.0832	-38.7591	590.5913	5.2124	202.2713	-13.7651	77.1167	10.5243	179.8767	-0.0592	0.0182	-0.0073	-0.0462	0.0165	0.9585
47.8044	-4.3264	585.4553	34.1523	-215.5444	-37.0733	602.6751	4.9034	184.6272	-13.4879	70.4574	10.4776	163.9864	-0.0592	0.0182	-0.0073	-0.0462	0.0165	0.9585
47.8243	-2.1261	598.5867	33.3073	-220.4542	-35.373	613.2893	4.648	168.796	-13.2805	64.4415	10.4392	149.7649	-0.0592	0.0182	-0.0073	-0.0462	0.0165	0.9585
47.8441	-0.20083	610.9043	32.4407	-225.0481	-33.793	623.1831	4.3818	154.0306	-13.0729	58.7885	10.3749	136.5424	-0.0592	0.0182	-0.0073	-0.0462	0.0165	0.9585
47.864	1.4833	622.8682	31.6766	-229.4726	-32.4304	632.8553	4.0462	139.7694	-12.8262	53.2898	10.2744	123.8162	-0.0592	0.0182	-0.0073	-0.0462	0.0165	0.9585
47.8839	2.9545	634.6745	31.1457	-233.7642	-31.3842	642.5285	3.5936	125.5942	-12.5007	47.7971	10.1252	111.207	-0.0592	0.0182	-0.0073	-0.0462	0.0165	0.9585
47.9037	4.2106	646.2971	30.995	-237.8654	-30.7812	652.2084	2.9903	111.1868	-12.0494	42.2032	9.9037	98.4225	-0.0592	0.0182	-0.0073	-0.0462	0.0165	0.9585
47.9236	5.2161	657.6136	31.3777	-241.6775	-30.7707	661.8167	2.2205	96.3304	-11.4241	36.4434	9.5788	85.2604	-0.0592	0.0182	-0.0073	-0.0462	0.0165	0.9585
47.9434	5.8799	668.5832	32.4177	-245.1359	-31.4995	671.3768	1.2994	81.0013	-10.5721	30.5274	9.105	71.6963	-0.0592	0.0182	-0.0073	-0.0462	0.0165	0.9585
47.9633	6.077	679.3705	34.1706	-248.27	-33.0672	681.1225	0.28963	65.471	-9.4551	24.5731	8.4302	57.9722	-0.0592	0.0182	-0.0073	-0.0462	0.0165	0.9585
47.9831	5.6942	690.4084	36.6126	-251.2343	-35.4922	691.5212	-0.68185	50.3112	-8.0753	18.8033	7.5156	44.5957	-0.0592	0.0182	-0.0073	-0.0462	0.0165	0.9585
48.003	4.6531	702.4022	39.6304	-254.321	-38.6913	703.2481	-1.4434	36.2847	-6.4956	13.5029	6.3583	32.2388	-0.0592	0.0182	-0.0073	-0.0462	0.0165	0.9585
48.0229	2.9548	716.267	43.0072	-257.944	-42.4481	717.1235	-1.8494	24.1552	-4.8405	8.948	5.0152	21.5709	-0.0592	0.0182	-0.0073	-0.0462	0.0165	0.9585
48.0427	0.72323	732.9266	46.4449	-262.5528	-46.417	733.9162	-1.8647	14.4673	-3.2748	5.3289	3.6192	13.065	-0.0592	0.0182	-0.0073	-0.0462	0.0165	0.9585
